<svg width="566" height="143" viewBox="0 0 566 143" fill="none" xmlns="http://www.w3.org/2000/svg">
<path d="M0 10C0 4.47715 4.47715 0 10 0H67.8797V67.8797H0V10Z" fill="#6AA0CC"/>
<path d="M75.1203 0H133C138.523 0 143 4.47715 143 10V67.8797H75.1203V0Z" fill="#6AA0CC"/>
<path d="M75.1203 75.1203H143V133C143 138.523 138.523 143 133 143H75.1203V75.1203Z" fill="#6AA0CC"/>
<path d="M0 75.1203H67.8797V143H10C4.47715 143 0 138.523 0 133V75.1203Z" fill="#6AA0CC"/>
<path d="M172.356 85C170.948 81.16 169.636 77.256 168.42 73.288C167.268 69.256 166.148 65.16 165.06 61C163.972 56.776 162.948 52.424 161.988 47.944C161.028 43.4 160.068 38.696 159.108 33.832C158.212 28.968 157.316 23.848 156.42 18.472H164.196C165.412 25.64 166.724 32.712 168.132 39.688C169.54 46.6 170.98 53.16 172.452 59.368C173.988 65.576 175.492 71.176 176.964 76.168C178.308 72.712 179.684 69.096 181.092 65.32C182.564 61.48 184.036 57.512 185.508 53.416C187.044 49.32 188.548 45.032 190.02 40.552C191.556 36.072 193.028 31.4 194.436 26.536H200.868C202.788 33 204.74 39.144 206.724 44.968C208.708 50.792 210.692 56.296 212.676 61.48C214.724 66.664 216.676 71.56 218.532 76.168C219.94 71.24 221.348 65.704 222.756 59.56C224.228 53.352 225.668 46.76 227.076 39.784C228.484 32.808 229.828 25.704 231.108 18.472H238.596C237.636 23.848 236.676 28.968 235.716 33.832C234.82 38.696 233.86 43.4 232.836 47.944C231.876 52.424 230.852 56.776 229.764 61C228.676 65.16 227.524 69.256 226.308 73.288C225.156 77.256 223.908 81.16 222.564 85H214.788C212.804 80.2 210.852 75.368 208.932 70.504C207.012 65.64 205.092 60.552 203.172 55.24C201.316 49.928 199.396 44.232 197.412 38.152C195.492 44.232 193.572 49.928 191.652 55.24C189.732 60.552 187.812 65.64 185.892 70.504C183.972 75.368 182.02 80.2 180.036 85H172.356ZM250.388 85V18.472H257.876V85H250.388ZM274.95 85V18.472H280.902C283.462 21.224 286.15 24.36 288.966 27.88C291.782 31.4 294.598 35.08 297.414 38.92C300.294 42.696 303.078 46.504 305.766 50.344C308.454 54.184 310.918 57.864 313.158 61.384C315.462 64.904 317.414 68.072 319.014 70.888V18.472H326.406V85H320.166C318.694 82.312 316.806 79.144 314.502 75.496C312.198 71.784 309.67 67.88 306.918 63.784C304.166 59.624 301.318 55.496 298.374 51.4C295.494 47.24 292.646 43.368 289.83 39.784C287.078 36.136 284.582 33 282.342 30.376V85H274.95ZM360.09 85.576C357.402 85.576 354.554 85.448 351.546 85.192C348.538 84.936 345.85 84.488 343.482 83.848V19.72C345.85 19.08 348.538 18.632 351.546 18.376C354.618 18.056 357.498 17.896 360.186 17.896C367.418 17.896 373.786 19.144 379.29 21.64C384.794 24.072 389.082 27.784 392.154 32.776C395.29 37.768 396.858 44.072 396.858 51.688C396.858 59.24 395.29 65.544 392.154 70.6C389.082 75.592 384.794 79.336 379.29 81.832C373.786 84.328 367.386 85.576 360.09 85.576ZM360.858 79.144C370.202 79.144 377.21 76.712 381.882 71.848C386.618 66.92 388.986 60.2 388.986 51.688C388.986 43.176 386.65 36.488 381.978 31.624C377.306 26.76 370.298 24.328 360.954 24.328C357.818 24.328 355.482 24.424 353.946 24.616C352.41 24.808 351.418 24.936 350.97 25V78.472C351.418 78.536 352.378 78.664 353.85 78.856C355.322 79.048 357.658 79.144 360.858 79.144ZM439.967 86.44C434.335 86.44 429.119 85.128 424.319 82.504C419.583 79.88 415.775 76.008 412.895 70.888C410.015 65.704 408.575 59.304 408.575 51.688C408.575 45.992 409.407 41 411.071 36.712C412.735 32.36 415.007 28.744 417.887 25.864C420.831 22.92 424.191 20.712 427.967 19.24C431.743 17.768 435.743 17.032 439.967 17.032C445.663 17.032 450.879 18.344 455.615 20.968C460.351 23.528 464.159 27.4 467.039 32.584C469.919 37.704 471.359 44.072 471.359 51.688C471.359 59.304 469.919 65.704 467.039 70.888C464.159 76.008 460.351 79.88 455.615 82.504C450.879 85.128 445.663 86.44 439.967 86.44ZM439.967 79.72C444.767 79.72 448.927 78.6 452.447 76.36C455.967 74.056 458.687 70.824 460.607 66.664C462.527 62.44 463.487 57.448 463.487 51.688C463.487 45.928 462.527 40.968 460.607 36.808C458.687 32.584 455.967 29.352 452.447 27.112C448.927 24.872 444.767 23.752 439.967 23.752C435.167 23.752 431.007 24.872 427.487 27.112C423.967 29.352 421.247 32.584 419.327 36.808C417.407 40.968 416.447 45.928 416.447 51.688C416.447 57.448 417.407 62.44 419.327 66.664C421.247 70.824 423.967 74.056 427.487 76.36C431.007 78.6 435.167 79.72 439.967 79.72ZM496.356 85C494.948 81.16 493.636 77.256 492.42 73.288C491.268 69.256 490.148 65.16 489.06 61C487.972 56.776 486.948 52.424 485.988 47.944C485.028 43.4 484.068 38.696 483.108 33.832C482.212 28.968 481.316 23.848 480.42 18.472H488.196C489.412 25.64 490.724 32.712 492.132 39.688C493.54 46.6 494.98 53.16 496.452 59.368C497.988 65.576 499.492 71.176 500.964 76.168C502.308 72.712 503.684 69.096 505.092 65.32C506.564 61.48 508.036 57.512 509.508 53.416C511.044 49.32 512.548 45.032 514.02 40.552C515.556 36.072 517.028 31.4 518.436 26.536H524.868C526.788 33 528.74 39.144 530.724 44.968C532.708 50.792 534.692 56.296 536.676 61.48C538.724 66.664 540.676 71.56 542.532 76.168C543.94 71.24 545.348 65.704 546.756 59.56C548.228 53.352 549.668 46.76 551.076 39.784C552.484 32.808 553.828 25.704 555.108 18.472H562.596C561.636 23.848 560.676 28.968 559.716 33.832C558.82 38.696 557.86 43.4 556.836 47.944C555.876 52.424 554.852 56.776 553.764 61C552.676 65.16 551.524 69.256 550.308 73.288C549.156 77.256 547.908 81.16 546.564 85H538.788C536.804 80.2 534.852 75.368 532.932 70.504C531.012 65.64 529.092 60.552 527.172 55.24C525.316 49.928 523.396 44.232 521.412 38.152C519.492 44.232 517.572 49.928 515.652 55.24C513.732 60.552 511.812 65.64 509.892 70.504C507.972 75.368 506.02 80.2 504.036 85H496.356Z" fill="#6AA0CC"/>
<path d="M169.883 125.6C167.723 125.6 165.923 125.36 164.483 124.88C163.07 124.4 162.096 124 161.563 123.68L162.563 121.04C163.123 121.36 164.016 121.747 165.243 122.2C166.496 122.653 168.043 122.88 169.883 122.88C171.99 122.88 173.616 122.507 174.763 121.76C175.91 120.987 176.483 119.773 176.483 118.12C176.483 116.84 176.163 115.84 175.523 115.12C174.91 114.373 174.083 113.773 173.043 113.32C172.03 112.84 170.91 112.36 169.683 111.88C168.19 111.293 166.883 110.68 165.763 110.04C164.67 109.373 163.816 108.573 163.203 107.64C162.616 106.68 162.323 105.48 162.323 104.04C162.323 102.44 162.683 101.093 163.403 100C164.123 98.9067 165.163 98.08 166.523 97.52C167.883 96.96 169.496 96.68 171.363 96.68C172.91 96.68 174.336 96.88 175.643 97.28C176.976 97.6533 178.003 98.0667 178.723 98.52L177.683 101.12C176.91 100.587 175.963 100.16 174.843 99.84C173.75 99.52 172.576 99.36 171.323 99.36C169.616 99.36 168.216 99.7067 167.123 100.4C166.03 101.093 165.483 102.227 165.483 103.8C165.483 104.867 165.75 105.733 166.283 106.4C166.816 107.067 167.55 107.627 168.483 108.08C169.416 108.533 170.47 109 171.643 109.48C173.163 110.067 174.523 110.693 175.723 111.36C176.95 112 177.923 112.84 178.643 113.88C179.363 114.893 179.723 116.267 179.723 118C179.723 119.68 179.323 121.08 178.523 122.2C177.723 123.32 176.59 124.173 175.123 124.76C173.656 125.32 171.91 125.6 169.883 125.6ZM204.82 125.6C202.34 125.6 200.353 125.12 198.86 124.16C197.366 123.2 196.273 121.893 195.58 120.24C194.913 118.587 194.58 116.733 194.58 114.68V97.28H197.7V114.32C197.7 117.28 198.353 119.44 199.66 120.8C200.993 122.133 202.713 122.8 204.82 122.8C206.953 122.8 208.673 122.12 209.98 120.76C211.313 119.4 211.98 117.253 211.98 114.32V97.28H215.1V114.68C215.1 116.733 214.753 118.587 214.06 120.24C213.393 121.893 212.313 123.2 210.82 124.16C209.326 125.12 207.326 125.6 204.82 125.6ZM232.044 125V97.8C233.058 97.5333 234.218 97.3467 235.524 97.24C236.858 97.1067 238.084 97.04 239.204 97.04C243.124 97.04 246.058 97.8 248.004 99.32C249.978 100.813 250.964 102.947 250.964 105.72C250.964 107.827 250.471 109.52 249.484 110.8C248.524 112.08 247.124 113.013 245.284 113.6C243.471 114.16 241.284 114.44 238.724 114.44H235.164V125H232.044ZM235.164 111.76H238.444C240.338 111.76 241.978 111.6 243.364 111.28C244.751 110.933 245.818 110.32 246.564 109.44C247.338 108.56 247.724 107.307 247.724 105.68C247.724 104.107 247.324 102.893 246.524 102.04C245.724 101.187 244.684 100.587 243.404 100.24C242.124 99.8933 240.764 99.72 239.324 99.72C238.391 99.72 237.578 99.76 236.884 99.84C236.218 99.8933 235.644 99.9467 235.164 100V111.76ZM265.951 125V97.8C266.964 97.5333 268.124 97.3467 269.431 97.24C270.764 97.1067 271.991 97.04 273.111 97.04C277.031 97.04 279.964 97.8 281.911 99.32C283.884 100.813 284.871 102.947 284.871 105.72C284.871 107.827 284.377 109.52 283.391 110.8C282.431 112.08 281.031 113.013 279.191 113.6C277.377 114.16 275.191 114.44 272.631 114.44H269.071V125H265.951ZM269.071 111.76H272.351C274.244 111.76 275.884 111.6 277.271 111.28C278.657 110.933 279.724 110.32 280.471 109.44C281.244 108.56 281.631 107.307 281.631 105.68C281.631 104.107 281.231 102.893 280.431 102.04C279.631 101.187 278.591 100.587 277.311 100.24C276.031 99.8933 274.671 99.72 273.231 99.72C272.297 99.72 271.484 99.76 270.791 99.84C270.124 99.8933 269.551 99.9467 269.071 100V111.76ZM311.817 125.6C309.47 125.6 307.297 125.053 305.297 123.96C303.324 122.867 301.737 121.253 300.537 119.12C299.337 116.96 298.737 114.293 298.737 111.12C298.737 108.747 299.084 106.667 299.777 104.88C300.47 103.067 301.417 101.56 302.617 100.36C303.844 99.1333 305.244 98.2133 306.817 97.6C308.39 96.9867 310.057 96.68 311.817 96.68C314.19 96.68 316.364 97.2267 318.337 98.32C320.31 99.3867 321.897 101 323.097 103.16C324.297 105.293 324.897 107.947 324.897 111.12C324.897 114.293 324.297 116.96 323.097 119.12C321.897 121.253 320.31 122.867 318.337 123.96C316.364 125.053 314.19 125.6 311.817 125.6ZM311.817 122.8C313.817 122.8 315.55 122.333 317.017 121.4C318.484 120.44 319.617 119.093 320.417 117.36C321.217 115.6 321.617 113.52 321.617 111.12C321.617 108.72 321.217 106.653 320.417 104.92C319.617 103.16 318.484 101.813 317.017 100.88C315.55 99.9467 313.817 99.48 311.817 99.48C309.817 99.48 308.084 99.9467 306.617 100.88C305.15 101.813 304.017 103.16 303.217 104.92C302.417 106.653 302.017 108.72 302.017 111.12C302.017 113.52 302.417 115.6 303.217 117.36C304.017 119.093 305.15 120.44 306.617 121.4C308.084 122.333 309.817 122.8 311.817 122.8ZM340.912 125V97.8C341.925 97.5333 343.085 97.3467 344.392 97.24C345.698 97.1067 346.898 97.04 347.992 97.04C351.805 97.04 354.698 97.7733 356.672 99.24C358.672 100.68 359.672 102.813 359.672 105.64C359.672 107.693 359.138 109.333 358.072 110.56C357.005 111.787 355.578 112.667 353.792 113.2C354.245 113.76 354.792 114.493 355.432 115.4C356.098 116.28 356.792 117.267 357.512 118.36C358.232 119.427 358.925 120.533 359.592 121.68C360.285 122.827 360.872 123.933 361.352 125H357.952C357.232 123.613 356.418 122.227 355.512 120.84C354.632 119.427 353.765 118.107 352.912 116.88C352.058 115.653 351.298 114.627 350.632 113.8C350.258 113.827 349.872 113.853 349.472 113.88C349.098 113.907 348.725 113.92 348.352 113.92H344.032V125H340.912ZM344.032 111.32H347.552C349.232 111.32 350.738 111.2 352.072 110.96C353.405 110.693 354.458 110.147 355.232 109.32C356.032 108.493 356.432 107.253 356.432 105.6C356.432 104.027 356.045 102.827 355.272 102C354.525 101.147 353.525 100.56 352.272 100.24C351.045 99.8933 349.725 99.72 348.312 99.72C347.378 99.72 346.552 99.76 345.832 99.84C345.112 99.8933 344.512 99.9467 344.032 100V111.32ZM381.833 125V99.96H372.993V97.28H393.753V99.96H384.953V125H381.833ZM427.201 125V97.28H443.321V99.96H430.321V109.28H441.841V111.96H430.321V125H427.201ZM468.335 125.6C465.855 125.6 463.869 125.12 462.375 124.16C460.882 123.2 459.789 121.893 459.095 120.24C458.429 118.587 458.095 116.733 458.095 114.68V97.28H461.215V114.32C461.215 117.28 461.869 119.44 463.175 120.8C464.509 122.133 466.229 122.8 468.335 122.8C470.469 122.8 472.189 122.12 473.495 120.76C474.829 119.4 475.495 117.253 475.495 114.32V97.28H478.615V114.68C478.615 116.733 478.269 118.587 477.575 120.24C476.909 121.893 475.829 123.2 474.335 124.16C472.842 125.12 470.842 125.6 468.335 125.6ZM495.56 125V97.28H498.04C499.107 98.4267 500.227 99.7333 501.4 101.2C502.573 102.667 503.747 104.2 504.92 105.8C506.12 107.373 507.28 108.96 508.4 110.56C509.52 112.16 510.547 113.693 511.48 115.16C512.44 116.627 513.253 117.947 513.92 119.12V97.28H517V125H514.4C513.787 123.88 513 122.56 512.04 121.04C511.08 119.493 510.027 117.867 508.88 116.16C507.733 114.427 506.547 112.707 505.32 111C504.12 109.267 502.933 107.653 501.76 106.16C500.613 104.64 499.573 103.333 498.64 102.24V125H495.56ZM541.035 125.24C539.915 125.24 538.728 125.187 537.475 125.08C536.221 124.973 535.101 124.787 534.115 124.52V97.8C535.101 97.5333 536.221 97.3467 537.475 97.24C538.755 97.1067 539.955 97.04 541.075 97.04C544.088 97.04 546.741 97.56 549.035 98.6C551.328 99.6133 553.115 101.16 554.395 103.24C555.701 105.32 556.355 107.947 556.355 111.12C556.355 114.267 555.701 116.893 554.395 119C553.115 121.08 551.328 122.64 549.035 123.68C546.741 124.72 544.075 125.24 541.035 125.24ZM541.355 122.56C545.248 122.56 548.168 121.547 550.115 119.52C552.088 117.467 553.075 114.667 553.075 111.12C553.075 107.573 552.101 104.787 550.155 102.76C548.208 100.733 545.288 99.72 541.395 99.72C540.088 99.72 539.115 99.76 538.475 99.84C537.835 99.92 537.421 99.9733 537.235 100V122.28C537.421 122.307 537.821 122.36 538.435 122.44C539.048 122.52 540.021 122.56 541.355 122.56Z" fill="#6AA0CC"/>
</svg>
