<svg width="384" height="100" viewBox="0 0 384 100" fill="none" xmlns="http://www.w3.org/2000/svg">
<rect width="384" height="100" fill="#F5F5F5"/>
<rect width="384" height="100" fill="white"/>
<g filter="url(#filter0_d_0_1)">
<path d="M191.33 63.2941L113.512 16.2118L39.7895 60.2235V94H31.5981V65.3412L10.0957 78.6471L6 71.4824L113.512 7L166.756 39.7529V21.3294H163.684V15.1882H183.139V22.3529H180.067V47.9412L220 71.4824L215.904 77.6235L199.522 68.4118V94H191.33V63.2941Z" fill="#6AA0CC"/>
<path d="M191.33 63.2941L113.512 16.2118L39.7895 60.2235V94H31.5981V65.3412L10.0957 78.6471L6 71.4824L113.512 7L166.756 39.7529V21.3294H163.684V15.1882H183.139V22.3529H180.067V47.9412L220 71.4824L215.904 77.6235L199.522 68.4118V94H191.33V63.2941Z" stroke="#6AA0CC" stroke-linejoin="round"/>
</g>
<path d="M248.292 81.004L245.576 91H244.764L242.664 83.65C242.617 83.482 242.571 83.3233 242.524 83.174C242.487 83.0153 242.449 82.866 242.412 82.726C242.375 82.5767 242.342 82.446 242.314 82.334C242.286 82.2127 242.263 82.1053 242.244 82.012C242.225 82.1053 242.207 82.208 242.188 82.32C242.169 82.432 242.141 82.5533 242.104 82.684C242.076 82.8053 242.043 82.936 242.006 83.076C241.969 83.216 241.931 83.3607 241.894 83.51L239.808 91H239.01L236.322 81.004H237.162L238.968 87.864C239.024 88.06 239.071 88.2467 239.108 88.424C239.155 88.6013 239.197 88.774 239.234 88.942C239.271 89.1007 239.304 89.2593 239.332 89.418C239.369 89.5767 239.402 89.7307 239.43 89.88C239.458 89.7213 239.486 89.5627 239.514 89.404C239.551 89.2453 239.589 89.082 239.626 88.914C239.673 88.7367 239.719 88.5593 239.766 88.382C239.813 88.2047 239.864 88.018 239.92 87.822L241.852 81.004H242.664L244.652 87.864C244.717 88.06 244.773 88.2513 244.82 88.438C244.867 88.6247 244.909 88.802 244.946 88.97C244.983 89.1287 245.016 89.2873 245.044 89.446C245.081 89.6047 245.114 89.7587 245.142 89.908C245.179 89.7027 245.217 89.4973 245.254 89.292C245.301 89.0773 245.352 88.8533 245.408 88.62C245.464 88.3867 245.525 88.1393 245.59 87.878L247.438 81.004H248.292ZM250.608 83.552V91H249.824V83.552H250.608ZM250.216 80.794C250.393 80.794 250.528 80.85 250.622 80.962C250.715 81.0647 250.762 81.2093 250.762 81.396C250.762 81.592 250.715 81.746 250.622 81.858C250.528 81.9607 250.393 82.012 250.216 82.012C250.048 82.012 249.917 81.9607 249.824 81.858C249.73 81.746 249.684 81.592 249.684 81.396C249.684 81.2093 249.73 81.0647 249.824 80.962C249.917 80.85 250.048 80.794 250.216 80.794ZM256.41 83.412C257.259 83.412 257.908 83.6313 258.356 84.07C258.804 84.5087 259.028 85.1993 259.028 86.142V91H258.244V86.184C258.244 85.4653 258.08 84.938 257.754 84.602C257.427 84.266 256.946 84.098 256.312 84.098C255.5 84.098 254.888 84.336 254.478 84.812C254.067 85.288 253.862 85.9973 253.862 86.94V91H253.078V83.552H253.708L253.834 84.84H253.876C254.016 84.5693 254.202 84.3267 254.436 84.112C254.669 83.8973 254.949 83.7293 255.276 83.608C255.612 83.4773 255.99 83.412 256.41 83.412ZM264.078 91.14C263.079 91.14 262.309 90.8227 261.768 90.188C261.236 89.544 260.97 88.6013 260.97 87.36C260.97 86.072 261.25 85.092 261.81 84.42C262.379 83.748 263.159 83.412 264.148 83.412C264.568 83.412 264.932 83.4773 265.24 83.608C265.548 83.7293 265.809 83.8973 266.024 84.112C266.248 84.3267 266.421 84.5693 266.542 84.84H266.598C266.589 84.616 266.575 84.3733 266.556 84.112C266.547 83.8413 266.542 83.5987 266.542 83.384V80.36H267.34V91H266.696L266.584 89.698H266.542C266.411 89.9593 266.239 90.202 266.024 90.426C265.809 90.6407 265.543 90.8133 265.226 90.944C264.909 91.0747 264.526 91.14 264.078 91.14ZM264.176 90.454C265.044 90.454 265.655 90.1927 266.01 89.67C266.374 89.1473 266.556 88.3913 266.556 87.402V87.276C266.556 86.2493 266.374 85.4653 266.01 84.924C265.655 84.3733 265.063 84.098 264.232 84.098C263.429 84.098 262.823 84.3827 262.412 84.952C262.001 85.512 261.796 86.3193 261.796 87.374C261.796 88.382 261.992 89.1473 262.384 89.67C262.776 90.1927 263.373 90.454 264.176 90.454ZM276.015 87.276C276.015 87.8547 275.94 88.382 275.791 88.858C275.651 89.3247 275.436 89.7307 275.147 90.076C274.867 90.412 274.517 90.6733 274.097 90.86C273.677 91.0467 273.196 91.14 272.655 91.14C272.141 91.14 271.679 91.0513 271.269 90.874C270.867 90.6873 270.522 90.426 270.233 90.09C269.943 89.7447 269.724 89.334 269.575 88.858C269.425 88.382 269.351 87.8547 269.351 87.276C269.351 86.464 269.481 85.7733 269.743 85.204C270.013 84.6253 270.401 84.182 270.905 83.874C271.418 83.566 272.025 83.412 272.725 83.412C273.434 83.412 274.031 83.5753 274.517 83.902C275.011 84.2193 275.385 84.6673 275.637 85.246C275.889 85.8247 276.015 86.5013 276.015 87.276ZM270.177 87.276C270.177 87.9107 270.265 88.4707 270.443 88.956C270.62 89.432 270.895 89.8007 271.269 90.062C271.642 90.3233 272.109 90.454 272.669 90.454C273.247 90.454 273.723 90.3233 274.097 90.062C274.47 89.7913 274.745 89.418 274.923 88.942C275.1 88.4567 275.189 87.9013 275.189 87.276C275.189 86.6507 275.105 86.1 274.937 85.624C274.769 85.148 274.503 84.7747 274.139 84.504C273.775 84.2333 273.299 84.098 272.711 84.098C271.861 84.098 271.227 84.378 270.807 84.938C270.387 85.498 270.177 86.2773 270.177 87.276ZM282.207 86.156C282.16 85.9973 282.114 85.8433 282.067 85.694C282.03 85.5447 281.992 85.4047 281.955 85.274C281.918 85.134 281.88 84.9987 281.843 84.868C281.806 84.7373 281.773 84.616 281.745 84.504H281.703C281.675 84.616 281.642 84.7373 281.605 84.868C281.577 84.9987 281.544 85.1387 281.507 85.288C281.47 85.428 281.428 85.5727 281.381 85.722C281.344 85.862 281.302 86.0113 281.255 86.17L279.673 91H278.833L276.733 83.552H277.559L278.819 88.158C278.894 88.438 278.959 88.6947 279.015 88.928C279.071 89.152 279.122 89.362 279.169 89.558C279.216 89.7447 279.248 89.9173 279.267 90.076H279.309C279.337 89.964 279.365 89.8427 279.393 89.712C279.43 89.572 279.468 89.4273 279.505 89.278C279.542 89.1287 279.584 88.97 279.631 88.802C279.687 88.6247 279.743 88.4473 279.799 88.27L281.339 83.552H282.165L283.635 88.256C283.71 88.48 283.775 88.704 283.831 88.928C283.896 89.1427 283.952 89.348 283.999 89.544C284.055 89.7307 284.097 89.908 284.125 90.076H284.167C284.186 89.9173 284.214 89.7447 284.251 89.558C284.298 89.362 284.349 89.1473 284.405 88.914C284.47 88.6807 284.54 88.4287 284.615 88.158L285.833 83.552H286.645L284.615 91H283.733L282.207 86.156ZM297.399 88.41C297.399 89.0073 297.249 89.5113 296.951 89.922C296.661 90.3233 296.255 90.6267 295.733 90.832C295.21 91.0373 294.617 91.14 293.955 91.14C293.544 91.14 293.175 91.1167 292.849 91.07C292.522 91.0327 292.223 90.986 291.953 90.93C291.682 90.8647 291.439 90.79 291.225 90.706V89.894C291.579 90.034 291.99 90.16 292.457 90.272C292.923 90.3747 293.437 90.426 293.997 90.426C294.51 90.426 294.958 90.3513 295.341 90.202C295.733 90.0527 296.036 89.8333 296.251 89.544C296.475 89.2547 296.587 88.8907 296.587 88.452C296.587 88.0507 296.493 87.724 296.307 87.472C296.129 87.22 295.849 87.0007 295.467 86.814C295.093 86.618 294.613 86.422 294.025 86.226C293.605 86.0767 293.227 85.9227 292.891 85.764C292.564 85.6053 292.284 85.4187 292.051 85.204C291.817 84.9893 291.64 84.7373 291.519 84.448C291.397 84.1587 291.337 83.8087 291.337 83.398C291.337 82.8473 291.477 82.3853 291.757 82.012C292.037 81.6387 292.415 81.354 292.891 81.158C293.376 80.962 293.922 80.864 294.529 80.864C295.014 80.864 295.476 80.9107 295.915 81.004C296.353 81.088 296.769 81.2187 297.161 81.396L296.895 82.096C296.503 81.928 296.106 81.802 295.705 81.718C295.303 81.634 294.902 81.592 294.501 81.592C294.034 81.592 293.623 81.662 293.269 81.802C292.923 81.9327 292.653 82.1333 292.457 82.404C292.261 82.6653 292.163 82.992 292.163 83.384C292.163 83.8133 292.256 84.1587 292.443 84.42C292.629 84.6813 292.9 84.9007 293.255 85.078C293.609 85.246 294.043 85.4187 294.557 85.596C295.145 85.8013 295.649 86.0207 296.069 86.254C296.498 86.478 296.825 86.758 297.049 87.094C297.282 87.43 297.399 87.8687 297.399 88.41ZM305.209 83.552V91H304.551L304.439 89.726H304.397C304.267 89.9967 304.08 90.2393 303.837 90.454C303.604 90.6687 303.324 90.8367 302.997 90.958C302.671 91.0793 302.293 91.14 301.863 91.14C301.285 91.14 300.799 91.042 300.407 90.846C300.025 90.6407 299.735 90.3373 299.539 89.936C299.343 89.5347 299.245 89.0353 299.245 88.438V83.552H300.043V88.368C300.043 89.0773 300.202 89.6047 300.519 89.95C300.846 90.286 301.322 90.454 301.947 90.454C302.498 90.454 302.955 90.3513 303.319 90.146C303.683 89.9313 303.954 89.614 304.131 89.194C304.318 88.774 304.411 88.2513 304.411 87.626V83.552H305.209ZM311.002 83.412C311.954 83.412 312.696 83.734 313.228 84.378C313.769 85.022 314.04 85.974 314.04 87.234C314.04 88.074 313.914 88.788 313.662 89.376C313.41 89.9547 313.05 90.3933 312.584 90.692C312.126 90.9907 311.576 91.14 310.932 91.14C310.493 91.14 310.11 91.0747 309.784 90.944C309.457 90.8133 309.186 90.6407 308.972 90.426C308.757 90.2113 308.589 89.9733 308.468 89.712H308.412C308.43 89.9453 308.444 90.202 308.454 90.482C308.463 90.7527 308.468 91.0047 308.468 91.238V94.304H307.67V83.552H308.328L308.426 84.952H308.468C308.589 84.6813 308.762 84.4293 308.986 84.196C309.21 83.9627 309.485 83.776 309.812 83.636C310.148 83.4867 310.544 83.412 311.002 83.412ZM310.89 84.098C310.339 84.098 309.886 84.2147 309.532 84.448C309.177 84.6813 308.911 85.0267 308.734 85.484C308.556 85.932 308.468 86.4873 308.468 87.15V87.29C308.468 87.99 308.552 88.578 308.72 89.054C308.897 89.5207 309.158 89.8707 309.504 90.104C309.858 90.3373 310.302 90.454 310.834 90.454C311.356 90.454 311.79 90.328 312.136 90.076C312.49 89.8147 312.756 89.446 312.934 88.97C313.12 88.4847 313.214 87.906 313.214 87.234C313.214 86.2167 313.022 85.442 312.64 84.91C312.257 84.3687 311.674 84.098 310.89 84.098ZM319.382 83.412C320.334 83.412 321.076 83.734 321.608 84.378C322.15 85.022 322.42 85.974 322.42 87.234C322.42 88.074 322.294 88.788 322.042 89.376C321.79 89.9547 321.431 90.3933 320.964 90.692C320.507 90.9907 319.956 91.14 319.312 91.14C318.874 91.14 318.491 91.0747 318.164 90.944C317.838 90.8133 317.567 90.6407 317.352 90.426C317.138 90.2113 316.97 89.9733 316.848 89.712H316.792C316.811 89.9453 316.825 90.202 316.834 90.482C316.844 90.7527 316.848 91.0047 316.848 91.238V94.304H316.05V83.552H316.708L316.806 84.952H316.848C316.97 84.6813 317.142 84.4293 317.366 84.196C317.59 83.9627 317.866 83.776 318.192 83.636C318.528 83.4867 318.925 83.412 319.382 83.412ZM319.27 84.098C318.72 84.098 318.267 84.2147 317.912 84.448C317.558 84.6813 317.292 85.0267 317.114 85.484C316.937 85.932 316.848 86.4873 316.848 87.15V87.29C316.848 87.99 316.932 88.578 317.1 89.054C317.278 89.5207 317.539 89.8707 317.884 90.104C318.239 90.3373 318.682 90.454 319.214 90.454C319.737 90.454 320.171 90.328 320.516 90.076C320.871 89.8147 321.137 89.446 321.314 88.97C321.501 88.4847 321.594 87.906 321.594 87.234C321.594 86.2167 321.403 85.442 321.02 84.91C320.638 84.3687 320.054 84.098 319.27 84.098ZM330.661 87.276C330.661 87.8547 330.587 88.382 330.437 88.858C330.297 89.3247 330.083 89.7307 329.793 90.076C329.513 90.412 329.163 90.6733 328.743 90.86C328.323 91.0467 327.843 91.14 327.301 91.14C326.788 91.14 326.326 91.0513 325.915 90.874C325.514 90.6873 325.169 90.426 324.879 90.09C324.59 89.7447 324.371 89.334 324.221 88.858C324.072 88.382 323.997 87.8547 323.997 87.276C323.997 86.464 324.128 85.7733 324.389 85.204C324.66 84.6253 325.047 84.182 325.551 83.874C326.065 83.566 326.671 83.412 327.371 83.412C328.081 83.412 328.678 83.5753 329.163 83.902C329.658 84.2193 330.031 84.6673 330.283 85.246C330.535 85.8247 330.661 86.5013 330.661 87.276ZM324.823 87.276C324.823 87.9107 324.912 88.4707 325.089 88.956C325.267 89.432 325.542 89.8007 325.915 90.062C326.289 90.3233 326.755 90.454 327.315 90.454C327.894 90.454 328.37 90.3233 328.743 90.062C329.117 89.7913 329.392 89.418 329.569 88.942C329.747 88.4567 329.835 87.9013 329.835 87.276C329.835 86.6507 329.751 86.1 329.583 85.624C329.415 85.148 329.149 84.7747 328.785 84.504C328.421 84.2333 327.945 84.098 327.357 84.098C326.508 84.098 325.873 84.378 325.453 84.938C325.033 85.498 324.823 86.2773 324.823 87.276ZM335.741 83.426C335.928 83.426 336.105 83.44 336.273 83.468C336.45 83.4867 336.609 83.5147 336.749 83.552L336.637 84.28C336.488 84.2427 336.338 84.2147 336.189 84.196C336.04 84.168 335.876 84.154 335.699 84.154C335.363 84.154 335.06 84.2193 334.789 84.35C334.518 84.4807 334.285 84.6673 334.089 84.91C333.893 85.1527 333.744 85.442 333.641 85.778C333.538 86.114 333.487 86.492 333.487 86.912V91H332.689V83.552H333.361L333.445 84.952H333.487C333.608 84.6627 333.772 84.406 333.977 84.182C334.192 83.9487 334.448 83.7667 334.747 83.636C335.046 83.496 335.377 83.426 335.741 83.426ZM340.299 90.468C340.504 90.468 340.7 90.454 340.887 90.426C341.073 90.3887 341.237 90.3467 341.377 90.3V90.944C341.237 91 341.059 91.0467 340.845 91.084C340.639 91.1213 340.42 91.14 340.187 91.14C339.776 91.14 339.426 91.0653 339.137 90.916C338.847 90.7573 338.623 90.5147 338.465 90.188C338.315 89.8613 338.241 89.4413 338.241 88.928V84.196H337.149V83.748L338.241 83.496L338.535 81.774H339.039V83.552H341.335V84.196H339.039V88.9C339.039 89.4133 339.141 89.8053 339.347 90.076C339.552 90.3373 339.869 90.468 340.299 90.468ZM347.573 91H346.761V81.004H352.249V81.732H347.573V85.848H351.983V86.576H347.573V91ZM359.528 83.552V91H358.87L358.758 89.726H358.716C358.585 89.9967 358.398 90.2393 358.156 90.454C357.922 90.6687 357.642 90.8367 357.316 90.958C356.989 91.0793 356.611 91.14 356.182 91.14C355.603 91.14 355.118 91.042 354.726 90.846C354.343 90.6407 354.054 90.3373 353.858 89.936C353.662 89.5347 353.564 89.0353 353.564 88.438V83.552H354.362V88.368C354.362 89.0773 354.52 89.6047 354.838 89.95C355.164 90.286 355.64 90.454 356.266 90.454C356.816 90.454 357.274 90.3513 357.638 90.146C358.002 89.9313 358.272 89.614 358.45 89.194C358.636 88.774 358.73 88.2513 358.73 87.626V83.552H359.528ZM365.32 83.412C366.169 83.412 366.818 83.6313 367.266 84.07C367.714 84.5087 367.938 85.1993 367.938 86.142V91H367.154V86.184C367.154 85.4653 366.991 84.938 366.664 84.602C366.337 84.266 365.857 84.098 365.222 84.098C364.41 84.098 363.799 84.336 363.388 84.812C362.977 85.288 362.772 85.9973 362.772 86.94V91H361.988V83.552H362.618L362.744 84.84H362.786C362.926 84.5693 363.113 84.3267 363.346 84.112C363.579 83.8973 363.859 83.7293 364.186 83.608C364.522 83.4773 364.9 83.412 365.32 83.412ZM372.988 91.14C371.989 91.14 371.219 90.8227 370.678 90.188C370.146 89.544 369.88 88.6013 369.88 87.36C369.88 86.072 370.16 85.092 370.72 84.42C371.289 83.748 372.069 83.412 373.058 83.412C373.478 83.412 373.842 83.4773 374.15 83.608C374.458 83.7293 374.719 83.8973 374.934 84.112C375.158 84.3267 375.331 84.5693 375.452 84.84H375.508C375.499 84.616 375.485 84.3733 375.466 84.112C375.457 83.8413 375.452 83.5987 375.452 83.384V80.36H376.25V91H375.606L375.494 89.698H375.452C375.321 89.9593 375.149 90.202 374.934 90.426C374.719 90.6407 374.453 90.8133 374.136 90.944C373.819 91.0747 373.436 91.14 372.988 91.14ZM373.086 90.454C373.954 90.454 374.565 90.1927 374.92 89.67C375.284 89.1473 375.466 88.3913 375.466 87.402V87.276C375.466 86.2493 375.284 85.4653 374.92 84.924C374.565 84.3733 373.973 84.098 373.142 84.098C372.339 84.098 371.733 84.3827 371.322 84.952C370.911 85.512 370.706 86.3193 370.706 87.374C370.706 88.382 370.902 89.1473 371.294 89.67C371.686 90.1927 372.283 90.454 373.086 90.454Z" fill="#817056"/>
<path d="M287.29 72.91L276.23 47.22L265.03 72.91L242 19.5H244.45L265.1 67.24L275.04 44.42L264.26 19.5H266.64L276.44 42.11L286.31 19.5H288.48L277.56 44.7L287.43 67.45L308.15 19.5H310.6L287.29 72.91ZM327.153 72.98C321.319 72.98 316.793 70.5767 313.573 65.77V61.99C314.833 64.79 316.653 66.9833 319.033 68.57C321.459 70.1567 324.353 70.95 327.713 70.95C330.046 70.95 332.193 70.4367 334.153 69.41C336.159 68.3833 337.746 66.9367 338.913 65.07C340.079 63.2033 340.663 61.0567 340.663 58.63C340.663 56.4367 340.289 54.5467 339.543 52.96C338.796 51.3733 337.559 49.8567 335.833 48.41C334.106 46.9167 331.609 45.1667 328.343 43.16L326.103 41.76C324.049 40.5 322.393 39.38 321.133 38.4C319.873 37.42 318.776 36.2767 317.843 34.97C316.629 33.15 316.023 31.05 316.023 28.67C316.023 25.4967 317.049 23.0233 319.103 21.25C321.156 19.4767 323.769 18.59 326.943 18.59C331.236 18.59 334.643 20.1767 337.163 23.35V26.92C336.089 24.96 334.619 23.42 332.753 22.3C330.886 21.18 328.833 20.62 326.593 20.62C324.259 20.62 322.299 21.3433 320.713 22.79C319.126 24.2367 318.333 26.1733 318.333 28.6C318.333 30.98 319.056 33.0333 320.503 34.76C321.996 36.44 324.493 38.2833 327.993 40.29C332.286 42.81 335.623 45.0967 338.003 47.15C339.683 48.69 340.896 50.3933 341.643 52.26C342.436 54.1267 342.833 56.2033 342.833 58.49C342.833 61.3833 342.156 63.9267 340.803 66.12C339.449 68.3133 337.583 70.0167 335.203 71.23C332.823 72.3967 330.139 72.98 327.153 72.98ZM351.3 19.5H369.99V21.53H353.61V49.95H367.26V51.98H353.61V72H351.3V19.5Z" fill="#718696"/>
<defs>
<filter id="filter0_d_0_1" x="2.89992" y="5.9" width="218.2" height="91.2" filterUnits="userSpaceOnUse" color-interpolation-filters="sRGB">
<feFlood flood-opacity="0" result="BackgroundImageFix"/>
<feColorMatrix in="SourceAlpha" type="matrix" values="0 0 0 0 0 0 0 0 0 0 0 0 0 0 0 0 0 0 127 0" result="hardAlpha"/>
<feOffset dx="-1" dy="1"/>
<feGaussianBlur stdDeviation="0.8"/>
<feComposite in2="hardAlpha" operator="out"/>
<feColorMatrix type="matrix" values="0 0 0 0 0 0 0 0 0 0 0 0 0 0 0 0 0 0 0.25 0"/>
<feBlend mode="normal" in2="BackgroundImageFix" result="effect1_dropShadow_0_1"/>
<feBlend mode="normal" in="SourceGraphic" in2="effect1_dropShadow_0_1" result="shape"/>
</filter>
</defs>
</svg>
