<?xml version="1.0" encoding="utf-8"?>
<!-- Generator: Adobe Illustrator 27.8.0, SVG Export Plug-In . SVG Version: 6.00 Build 0)  -->
<svg version="1.1" id="Layer_2" xmlns="http://www.w3.org/2000/svg" xmlns:xlink="http://www.w3.org/1999/xlink" x="0px" y="0px"
	 viewBox="0 0 489.25 154.84" style="enable-background:new 0 0 489.25 154.84;" xml:space="preserve">
<style type="text/css">
	.st0{fill:#6AA0CE;}
	.st1{fill:#718697;}
</style>
<g>
	<path class="st0" d="M195.01,41.01c0.75,2.54,1.56,5.2,2.4,7.95c0.85,2.76,1.73,5.51,2.65,8.27s1.84,5.47,2.76,8.13
		c0.92,2.66,1.8,5.17,2.65,7.53c0.71-2.54,1.39-5.31,2.05-8.31c0.66-2.99,1.32-6.1,1.98-9.33c0.66-3.23,1.31-6.51,1.94-9.86
		c0.64-3.35,1.24-6.65,1.8-9.9h9.19c-1.65,8.86-3.48,17.38-5.51,25.56c-2.02,8.18-4.28,15.99-6.78,23.43h-8.57
		c-3.65-9.52-7.19-19.91-10.6-31.18c-1.75,5.7-3.52,11.12-5.31,16.26c-1.79,5.14-3.59,10.11-5.38,14.92h-8.5
		c-2.54-7.45-4.81-15.26-6.81-23.43c-2-8.18-3.82-16.69-5.47-25.56h9.54c0.57,3.21,1.17,6.48,1.8,9.83c0.64,3.35,1.3,6.63,1.98,9.86
		c0.68,3.23,1.38,6.35,2.09,9.37c0.71,3.02,1.41,5.8,2.12,8.34c0.9-2.4,1.8-4.94,2.72-7.6c0.92-2.66,1.83-5.37,2.72-8.13
		c0.9-2.76,1.76-5.5,2.58-8.24c0.82-2.73,1.59-5.37,2.3-7.92H195.01z"/>
	<path class="st0" d="M231.35,35.5h8.91v48.99h-8.91V35.5z"/>
	<path class="st0" d="M286.42,84.49c-1.6-2.69-3.39-5.57-5.37-8.66c-1.98-3.09-4.03-6.2-6.15-9.33c-2.12-3.13-4.28-6.17-6.47-9.12
		c-2.19-2.94-4.28-5.6-6.26-7.95v35.06h-8.77V35.5h7.28c1.88,1.98,3.91,4.32,6.08,7.03c2.17,2.71,4.35,5.53,6.54,8.45
		c2.19,2.92,4.31,5.86,6.36,8.8c2.05,2.95,3.88,5.69,5.48,8.24V35.5h8.84v48.99H286.42z"/>
	<path class="st0" d="M348.7,59.96c0,4.24-0.66,7.93-1.98,11.06c-1.32,3.13-3.19,5.75-5.62,7.85c-2.43,2.1-5.35,3.65-8.77,4.67
		c-3.42,1.01-7.2,1.52-11.35,1.52c-1.98,0-4.22-0.08-6.72-0.25c-2.5-0.17-4.88-0.51-7.14-1.03V36.21c2.26-0.52,4.67-0.85,7.21-0.99
		c2.54-0.14,4.81-0.21,6.79-0.21c4.1,0,7.85,0.48,11.24,1.45c3.39,0.97,6.3,2.47,8.73,4.52c2.43,2.05,4.3,4.64,5.62,7.78
		C348.04,51.89,348.7,55.62,348.7,59.96z M316.04,77.14c0.52,0.05,1.2,0.08,2.05,0.11c0.85,0.02,2,0.04,3.46,0.04
		c5.98,0,10.45-1.52,13.4-4.56c2.95-3.04,4.42-7.29,4.42-12.76c0-5.56-1.44-9.83-4.31-12.8c-2.88-2.97-7.33-4.45-13.36-4.45
		c-2.64,0-4.52,0.07-5.66,0.21V77.14z"/>
	<path class="st0" d="M405.4,59.96c0,4.2-0.62,7.89-1.87,11.1c-1.25,3.21-2.95,5.88-5.09,8.02c-2.14,2.15-4.65,3.76-7.53,4.84
		c-2.88,1.08-5.94,1.63-9.19,1.63c-3.25,0-6.33-0.54-9.22-1.63c-2.9-1.08-5.42-2.7-7.56-4.84c-2.14-2.14-3.85-4.82-5.12-8.02
		c-1.27-3.2-1.91-6.9-1.91-11.1c0-4.19,0.64-7.88,1.91-11.06s3-5.85,5.2-8.02c2.19-2.17,4.72-3.79,7.6-4.88
		c2.87-1.08,5.91-1.63,9.12-1.63s6.24,0.54,9.12,1.63c2.87,1.08,5.38,2.71,7.53,4.88c2.14,2.17,3.85,4.84,5.12,8.02
		S405.4,55.77,405.4,59.96z M367.15,59.96c0,2.69,0.33,5.12,0.99,7.32c0.66,2.19,1.61,4.05,2.86,5.58c1.25,1.53,2.77,2.72,4.56,3.57
		c1.79,0.85,3.82,1.27,6.08,1.27c2.21,0,4.22-0.42,6.01-1.27c1.79-0.85,3.31-2.04,4.56-3.57c1.25-1.53,2.2-3.39,2.86-5.58
		c0.66-2.19,0.99-4.63,0.99-7.32s-0.33-5.12-0.99-7.32c-0.66-2.19-1.62-4.05-2.86-5.58c-1.25-1.53-2.77-2.72-4.56-3.57
		c-1.79-0.85-3.79-1.27-6.01-1.27c-2.26,0-4.29,0.42-6.08,1.27c-1.79,0.85-3.31,2.05-4.56,3.6c-1.25,1.56-2.2,3.42-2.86,5.58
		C367.48,54.85,367.15,57.27,367.15,59.96z"/>
	<path class="st0" d="M446.96,41.01c0.75,2.54,1.56,5.2,2.4,7.95c0.85,2.76,1.73,5.51,2.65,8.27s1.84,5.47,2.76,8.13
		c0.92,2.66,1.8,5.17,2.65,7.53c0.71-2.54,1.39-5.31,2.05-8.31c0.66-2.99,1.32-6.1,1.98-9.33c0.66-3.23,1.31-6.51,1.94-9.86
		c0.64-3.35,1.24-6.65,1.8-9.9h9.19c-1.65,8.86-3.48,17.38-5.51,25.56c-2.02,8.18-4.28,15.99-6.78,23.43h-8.57
		c-3.65-9.52-7.19-19.91-10.6-31.18c-1.75,5.7-3.52,11.12-5.31,16.26c-1.79,5.14-3.59,10.11-5.38,14.92h-8.5
		c-2.54-7.45-4.81-15.26-6.81-23.43c-2-8.18-3.82-16.69-5.46-25.56h9.54c0.57,3.21,1.17,6.48,1.8,9.83c0.64,3.35,1.3,6.63,1.98,9.86
		c0.68,3.23,1.38,6.35,2.09,9.37c0.71,3.02,1.41,5.8,2.12,8.34c0.89-2.4,1.8-4.94,2.72-7.6c0.92-2.66,1.83-5.37,2.72-8.13
		c0.89-2.76,1.75-5.5,2.58-8.24c0.82-2.73,1.59-5.37,2.3-7.92H446.96z"/>
</g>
<g>
	<path class="st0" d="M171.5,118.9c1.84,0,3.18-0.31,4.02-0.93c0.84-0.62,1.26-1.5,1.26-2.64c0-0.68-0.14-1.26-0.43-1.75
		c-0.28-0.49-0.69-0.93-1.22-1.32c-0.53-0.39-1.17-0.76-1.93-1.1c-0.76-0.34-1.62-0.67-2.6-0.99c-0.97-0.35-1.91-0.74-2.82-1.16
		c-0.91-0.42-1.7-0.94-2.39-1.56c-0.69-0.62-1.24-1.37-1.66-2.23c-0.42-0.87-0.63-1.91-0.63-3.12c0-2.54,0.88-4.54,2.64-5.99
		c1.76-1.45,4.15-2.17,7.18-2.17c1.76,0,3.32,0.2,4.69,0.59c1.37,0.39,2.44,0.82,3.23,1.28l-1.58,4.14
		c-0.92-0.51-1.93-0.91-3.02-1.18s-2.23-0.41-3.39-0.41c-1.38,0-2.46,0.28-3.23,0.85s-1.16,1.37-1.16,2.39
		c0,0.62,0.13,1.16,0.39,1.6c0.26,0.45,0.62,0.85,1.1,1.2c0.47,0.35,1.03,0.68,1.66,0.97c0.64,0.3,1.33,0.58,2.09,0.85
		c1.33,0.49,2.51,0.98,3.55,1.48c1.04,0.5,1.92,1.1,2.64,1.79c0.72,0.69,1.26,1.5,1.64,2.43s0.57,2.06,0.57,3.39
		c0,2.54-0.9,4.51-2.7,5.9c-1.8,1.39-4.43,2.09-7.89,2.09c-1.16,0-2.23-0.07-3.19-0.22c-0.96-0.15-1.81-0.33-2.56-0.55
		c-0.74-0.22-1.39-0.44-1.93-0.67c-0.54-0.23-0.97-0.44-1.3-0.63l1.5-4.18c0.73,0.41,1.72,0.81,2.96,1.22
		C168.24,118.7,169.75,118.9,171.5,118.9z"/>
	<path class="st0" d="M198.25,123.33c-1.92,0-3.57-0.28-4.95-0.83c-1.38-0.55-2.52-1.33-3.43-2.33c-0.91-1-1.58-2.18-2.01-3.53
		c-0.43-1.35-0.65-2.84-0.65-4.46V94.6h5.15v17.08c0,1.27,0.14,2.36,0.43,3.27c0.28,0.91,0.69,1.64,1.22,2.21
		c0.53,0.57,1.15,0.99,1.87,1.26c0.72,0.27,1.52,0.41,2.41,0.41c0.89,0,1.7-0.14,2.44-0.41c0.73-0.27,1.36-0.69,1.89-1.26
		c0.53-0.57,0.93-1.3,1.22-2.21c0.28-0.91,0.43-1.99,0.43-3.27V94.6h5.15v17.57c0,1.62-0.22,3.11-0.67,4.46s-1.12,2.53-2.03,3.53
		c-0.91,1-2.06,1.78-3.47,2.33C201.83,123.05,200.17,123.33,198.25,123.33z"/>
	<path class="st0" d="M224.71,94.31c4.08,0,7.22,0.74,9.39,2.23c2.18,1.49,3.27,3.81,3.27,6.98c0,1.65-0.29,3.06-0.87,4.24
		c-0.58,1.18-1.43,2.14-2.54,2.88c-1.11,0.75-2.46,1.29-4.06,1.64c-1.6,0.35-3.42,0.53-5.48,0.53h-2.56v9.9h-5.11V95
		c1.19-0.27,2.51-0.45,3.96-0.55C222.16,94.36,223.49,94.31,224.71,94.31z M225.07,98.73c-1.3,0-2.37,0.04-3.21,0.12v9.58h2.48
		c2.46,0,4.35-0.34,5.68-1.04c1.33-0.69,1.99-2,1.99-3.92c0-0.92-0.18-1.69-0.53-2.31c-0.35-0.62-0.84-1.11-1.46-1.46
		c-0.62-0.35-1.36-0.6-2.21-0.75C226.96,98.81,226.04,98.73,225.07,98.73z"/>
	<path class="st0" d="M250.8,94.31c4.08,0,7.22,0.74,9.39,2.23c2.18,1.49,3.27,3.81,3.27,6.98c0,1.65-0.29,3.06-0.87,4.24
		s-1.43,2.14-2.54,2.88c-1.11,0.75-2.46,1.29-4.06,1.64c-1.6,0.35-3.42,0.53-5.48,0.53h-2.56v9.9h-5.11V95
		c1.19-0.27,2.51-0.45,3.96-0.55C248.25,94.36,249.58,94.31,250.8,94.31z M251.16,98.73c-1.3,0-2.37,0.04-3.21,0.12v9.58h2.47
		c2.46,0,4.36-0.34,5.68-1.04c1.32-0.69,1.99-2,1.99-3.92c0-0.92-0.18-1.69-0.53-2.31c-0.35-0.62-0.84-1.11-1.46-1.46
		c-0.62-0.35-1.36-0.6-2.21-0.75C253.05,98.81,252.14,98.73,251.16,98.73z"/>
	<path class="st0" d="M295.07,108.64c0,2.41-0.36,4.53-1.08,6.37s-1.69,3.38-2.92,4.61c-1.23,1.23-2.67,2.16-4.32,2.78
		c-1.65,0.62-3.41,0.93-5.28,0.93c-1.87,0-3.63-0.31-5.29-0.93c-1.66-0.62-3.11-1.55-4.34-2.78c-1.23-1.23-2.21-2.77-2.94-4.61
		s-1.09-3.96-1.09-6.37s0.36-4.53,1.09-6.35s1.73-3.36,2.98-4.61s2.71-2.18,4.36-2.8c1.65-0.62,3.39-0.93,5.23-0.93
		s3.58,0.31,5.24,0.93c1.65,0.62,3.09,1.56,4.32,2.8c1.23,1.24,2.21,2.78,2.94,4.61S295.07,106.23,295.07,108.64z M273.12,108.64
		c0,1.54,0.19,2.94,0.57,4.2c0.38,1.26,0.93,2.33,1.64,3.21c0.72,0.88,1.59,1.56,2.62,2.05c1.03,0.49,2.19,0.73,3.49,0.73
		c1.27,0,2.42-0.24,3.45-0.73c1.03-0.49,1.9-1.17,2.62-2.05c0.72-0.88,1.26-1.95,1.64-3.21c0.38-1.26,0.57-2.66,0.57-4.2
		c0-1.54-0.19-2.94-0.57-4.2c-0.38-1.26-0.93-2.33-1.64-3.21s-1.59-1.56-2.62-2.05c-1.03-0.49-2.18-0.73-3.45-0.73
		c-1.3,0-2.46,0.24-3.49,0.73c-1.03,0.49-1.9,1.18-2.62,2.07c-0.72,0.89-1.26,1.96-1.64,3.21
		C273.31,105.7,273.12,107.09,273.12,108.64z"/>
	<path class="st0" d="M309.24,94.31c4.06,0,7.16,0.74,9.31,2.23c2.15,1.49,3.23,3.76,3.23,6.82c0,3.82-1.88,6.4-5.64,7.75
		c0.51,0.62,1.1,1.38,1.75,2.27c0.65,0.89,1.31,1.86,1.99,2.9c0.68,1.04,1.33,2.11,1.95,3.21c0.62,1.1,1.18,2.17,1.66,3.23h-5.72
		c-0.51-0.97-1.07-1.95-1.66-2.94c-0.6-0.99-1.2-1.95-1.81-2.88c-0.61-0.93-1.21-1.81-1.81-2.64s-1.15-1.56-1.66-2.21
		c-0.38,0.03-0.7,0.04-0.97,0.04s-0.53,0-0.77,0h-2.48v10.63h-5.11V95c1.24-0.27,2.57-0.45,3.98-0.55
		C306.87,94.36,308.13,94.31,309.24,94.31z M309.6,98.73c-1.08,0-2.08,0.04-3,0.12v9.09h2.23c1.24,0,2.34-0.07,3.29-0.2
		c0.95-0.13,1.74-0.38,2.37-0.73c0.64-0.35,1.12-0.82,1.44-1.42c0.32-0.59,0.49-1.35,0.49-2.27c0-0.87-0.16-1.6-0.49-2.19
		c-0.33-0.59-0.79-1.07-1.4-1.42c-0.61-0.35-1.33-0.6-2.17-0.75C311.52,98.81,310.6,98.73,309.6,98.73z"/>
	<path class="st0" d="M347.87,94.6v4.42h-8.64v23.7h-5.15v-23.7h-8.64V94.6H347.87z"/>
	<path class="st0" d="M362.84,122.72V94.6h17.77v4.34h-12.66v7.18h11.24v4.34h-11.24v12.26H362.84z"/>
	<path class="st0" d="M396.85,123.33c-1.92,0-3.57-0.28-4.95-0.83c-1.38-0.55-2.52-1.33-3.43-2.33s-1.58-2.18-2.01-3.53
		s-0.65-2.84-0.65-4.46V94.6h5.15v17.08c0,1.27,0.14,2.36,0.43,3.27c0.28,0.91,0.69,1.64,1.22,2.21c0.53,0.57,1.15,0.99,1.87,1.26
		c0.72,0.27,1.52,0.41,2.42,0.41c0.89,0,1.7-0.14,2.43-0.41c0.73-0.27,1.36-0.69,1.89-1.26s0.93-1.3,1.22-2.21
		c0.28-0.91,0.43-1.99,0.43-3.27V94.6h5.15v17.57c0,1.62-0.22,3.11-0.67,4.46s-1.12,2.53-2.03,3.53s-2.06,1.78-3.47,2.33
		C400.43,123.05,398.77,123.33,396.85,123.33z"/>
	<path class="st0" d="M434.31,122.72c-0.92-1.54-1.95-3.2-3.08-4.97c-1.14-1.77-2.31-3.56-3.53-5.36c-1.22-1.8-2.46-3.54-3.71-5.23
		c-1.26-1.69-2.46-3.21-3.59-4.57v20.13h-5.03V94.6h4.18c1.08,1.14,2.25,2.48,3.49,4.04c1.24,1.56,2.5,3.17,3.75,4.85
		c1.26,1.68,2.48,3.36,3.65,5.05s2.22,3.27,3.14,4.73V94.6h5.07v28.12H434.31z"/>
	<path class="st0" d="M470.06,108.64c0,2.43-0.38,4.55-1.14,6.35c-0.76,1.8-1.83,3.3-3.23,4.5c-1.39,1.2-3.07,2.1-5.03,2.68
		s-4.13,0.87-6.51,0.87c-1.14,0-2.42-0.05-3.86-0.14c-1.43-0.09-2.8-0.29-4.1-0.59V95c1.3-0.3,2.68-0.49,4.14-0.57
		c1.46-0.08,2.76-0.12,3.9-0.12c2.35,0,4.5,0.28,6.45,0.83s3.62,1.42,5.01,2.6s2.47,2.67,3.23,4.46
		C469.68,104,470.06,106.15,470.06,108.64z M451.31,118.5c0.3,0.03,0.69,0.05,1.18,0.06s1.15,0.02,1.99,0.02
		c3.44,0,6-0.87,7.69-2.62c1.69-1.75,2.54-4.19,2.54-7.32c0-3.19-0.83-5.64-2.48-7.35s-4.21-2.56-7.67-2.56
		c-1.52,0-2.6,0.04-3.25,0.12V118.5z"/>
</g>
<path class="st0" d="M101.87,74.35l-39.3-0.33V25.55l39.3,8.81V74.35z M131.45,40.98l-26.87-6.02v39.41l26.87,0.23V40.98z
	 M101.87,77.5l-39.3,0.33v48.47l39.3-8.81V77.5z M131.45,77.25l-26.87,0.23v39.41l26.87-6.02V77.25z"/>
<polygon class="st1" points="131.82,33.54 53.84,15.26 53.84,136.9 131.82,118.09 131.82,121.92 39.59,145.47 39.59,6.69 
	131.82,30.3 "/>
<polygon class="st1" points="34.49,26.11 34.49,125.59 25.06,128.66 25.06,23.15 "/>
<polygon class="st1" points="18.81,38.73 18.81,113.42 9.94,115.7 9.94,36.23 "/>
</svg>
